<svg id="svg" version="1.1" xmlns="http://www.w3.org/2000/svg" xmlns:xlink="http://www.w3.org/1999/xlink" width="400" height="328.2511210762332" viewBox="0, 0, 400,328.2511210762332"><g id="svgg"><path id="path0" d="M194.581 9.792 C 192.523 10.496,192.626 10.063,192.444 18.778 C 192.221 29.488,193.157 28.571,182.438 28.571 C 173.907 28.571,173.658 28.505,172.756 25.999 C 170.968 21.031,168.968 18.572,165.080 16.561 C 160.241 14.057,158.836 15.205,158.687 21.781 C 158.525 28.869,158.961 28.571,148.768 28.571 C 139.813 28.571,139.844 28.580,138.608 25.825 C 136.846 21.898,133.756 19.376,130.705 19.376 C 129.069 19.376,129.025 19.642,129.130 28.859 C 129.218 36.557,129.287 37.475,129.815 38.002 C 130.373 38.560,133.685 38.592,199.323 38.673 L 268.245 38.758 269.074 37.773 C 270.547 36.023,270.885 21.608,269.489 20.067 C 267.462 17.828,262.938 20.698,260.370 25.853 C 258.970 28.663,259.057 28.641,249.390 28.511 C 239.837 28.382,240.629 28.918,240.374 22.405 C 240.091 15.206,239.341 14.420,234.568 16.318 C 231.465 17.552,228.778 20.290,227.422 23.598 C 225.218 28.977,226.015 28.642,215.743 28.506 C 205.830 28.376,206.783 29.375,206.568 18.886 C 206.363 8.854,206.948 9.709,200.235 9.627 C 197.487 9.594,194.943 9.668,194.581 9.792 M127.522 48.981 C 125.801 49.370,124.196 51.029,118.227 58.590 C 117.414 59.619,115.925 61.451,114.919 62.661 C 113.913 63.871,112.657 65.457,112.128 66.186 C 111.599 66.914,110.325 68.540,109.296 69.798 C 105.417 74.545,102.214 78.532,99.672 81.778 C 98.227 83.624,96.409 85.892,95.633 86.818 C 91.749 91.455,90.918 93.559,91.566 97.123 C 91.788 98.344,92.255 100.969,92.605 102.956 C 92.954 104.943,93.529 107.405,93.882 108.427 C 94.236 109.449,94.689 111.632,94.889 113.278 C 95.090 114.924,95.559 117.043,95.932 117.987 C 96.306 118.932,97.032 121.330,97.545 123.317 C 99.430 130.612,100.473 134.291,101.004 135.522 C 101.303 136.215,101.888 138.038,102.305 139.573 C 102.722 141.108,103.681 144.064,104.436 146.141 C 105.191 148.218,106.241 151.162,106.771 152.683 C 107.300 154.204,108.011 155.903,108.351 156.460 C 108.691 157.016,109.200 158.260,109.483 159.224 C 109.766 160.188,110.280 161.444,110.624 162.015 C 110.969 162.587,111.438 163.645,111.666 164.368 C 112.039 165.545,113.939 169.591,115.136 171.757 C 115.386 172.209,115.964 173.391,116.420 174.384 C 116.876 175.378,117.395 176.412,117.572 176.683 C 117.749 176.954,118.414 178.136,119.050 179.310 C 120.946 182.807,122.343 185.164,122.890 185.786 C 123.173 186.108,123.714 186.988,124.093 187.741 C 125.115 189.773,130.844 198.108,133.990 202.140 C 134.803 203.181,135.759 204.419,136.115 204.890 C 139.957 209.976,147.622 218.279,155.373 225.749 C 157.791 228.080,161.248 231.427,163.054 233.185 C 164.860 234.944,166.802 236.616,167.370 236.901 C 167.937 237.185,169.341 238.438,170.490 239.684 C 171.638 240.930,173.391 242.520,174.384 243.217 C 175.378 243.915,177.521 245.607,179.146 246.979 C 182.602 249.894,187.124 253.308,188.419 253.979 C 188.918 254.237,190.278 255.210,191.441 256.140 C 196.173 259.925,197.880 260.849,199.841 260.686 C 201.592 260.541,204.715 258.977,206.404 257.398 C 207.090 256.757,208.178 255.917,215.764 250.171 C 216.757 249.419,218.255 248.204,219.093 247.472 C 219.931 246.740,221.837 245.181,223.328 244.007 C 224.820 242.833,226.736 241.281,227.587 240.558 C 228.438 239.836,229.837 238.654,230.695 237.931 C 232.549 236.371,236.454 232.812,238.084 231.199 C 238.722 230.567,239.592 229.808,240.016 229.512 C 241.717 228.328,254.688 215.096,257.528 211.646 C 258.129 210.916,258.947 209.956,259.346 209.511 C 261.541 207.064,264.735 203.087,266.174 201.009 C 267.077 199.705,268.203 198.169,268.675 197.595 C 269.933 196.068,274.548 189.233,274.548 188.899 C 274.548 188.741,275.119 187.813,275.817 186.835 C 276.515 185.857,277.438 184.400,277.870 183.596 C 278.301 182.793,279.191 181.167,279.848 179.984 C 281.933 176.228,286.956 166.057,287.345 164.805 C 287.550 164.142,287.926 163.427,288.179 163.217 C 288.432 163.007,288.882 161.999,289.179 160.978 C 289.476 159.957,290.057 158.529,290.471 157.804 C 290.884 157.079,291.555 155.452,291.961 154.187 C 292.368 152.923,292.923 151.449,293.194 150.912 C 293.466 150.376,293.887 149.083,294.130 148.041 C 294.374 146.999,294.939 145.443,295.386 144.584 C 295.834 143.724,296.371 142.209,296.580 141.215 C 296.789 140.222,297.305 138.522,297.726 137.438 C 298.148 136.355,298.733 134.507,299.027 133.333 C 299.322 132.159,299.977 130.238,300.483 129.064 C 301.016 127.829,301.503 125.960,301.638 124.631 C 301.766 123.366,302.219 121.297,302.645 120.033 C 303.071 118.768,303.583 116.773,303.783 115.599 C 303.983 114.425,304.575 111.987,305.099 110.181 C 305.622 108.374,306.209 105.694,306.402 104.225 C 306.595 102.755,307.060 100.465,307.435 99.134 C 308.856 94.095,308.286 92.374,303.098 86.043 C 299.437 81.575,299.300 81.407,297.137 78.709 C 296.002 77.295,294.778 75.739,294.417 75.252 C 293.414 73.900,291.328 71.317,289.473 69.130 C 288.554 68.046,287.452 66.642,287.026 66.010 C 286.599 65.378,285.797 64.318,285.243 63.656 C 284.690 62.994,283.236 61.220,282.013 59.715 C 275.327 51.489,273.799 49.721,272.983 49.267 C 271.915 48.674,130.111 48.394,127.522 48.981 M266.863 61.053 C 267.604 61.389,268.558 62.162,268.983 62.770 C 269.409 63.378,270.798 65.129,272.071 66.662 C 273.343 68.195,274.901 70.129,275.534 70.960 C 276.166 71.791,277.236 73.123,277.912 73.920 C 279.180 75.414,284.642 82.246,288.834 87.581 C 289.376 88.270,290.810 90.090,292.020 91.626 C 293.231 93.161,294.524 94.810,294.894 95.290 C 295.729 96.374,295.744 97.576,294.949 99.886 C 294.609 100.874,294.158 103.003,293.946 104.617 C 293.734 106.232,293.211 108.668,292.784 110.031 C 292.357 111.394,291.841 113.463,291.637 114.629 C 291.433 115.795,290.836 118.079,290.309 119.704 C 289.783 121.330,289.179 123.695,288.969 124.959 C 288.758 126.223,288.309 127.806,287.971 128.476 C 287.633 129.146,287.061 130.962,286.700 132.512 C 286.338 134.062,285.766 135.879,285.427 136.549 C 285.089 137.219,284.559 138.654,284.249 139.737 C 283.940 140.821,283.263 142.677,282.745 143.863 C 282.227 145.048,281.641 146.743,281.443 147.629 C 281.244 148.515,280.808 149.688,280.472 150.236 C 280.137 150.783,279.690 151.897,279.479 152.709 C 279.267 153.522,278.428 155.665,277.613 157.471 C 276.798 159.278,275.764 161.568,275.317 162.562 C 273.889 165.731,268.960 175.275,267.416 177.861 C 263.797 183.922,256.384 194.721,253.683 197.865 C 253.062 198.588,251.635 200.287,250.511 201.642 C 243.398 210.212,232.866 220.638,223.819 228.061 C 222.706 228.974,221.362 230.133,220.832 230.636 C 220.302 231.139,218.897 232.321,217.709 233.263 C 216.522 234.205,214.527 235.792,213.276 236.789 C 212.025 237.787,210.685 238.821,210.297 239.088 C 209.910 239.355,208.211 240.699,206.521 242.076 C 202.037 245.728,201.094 246.305,199.609 246.305 C 198.285 246.305,196.388 245.536,196.388 244.999 C 196.388 244.832,195.686 244.221,194.828 243.642 C 193.970 243.063,192.281 241.689,191.074 240.588 C 185.701 235.688,179.995 231.199,179.139 231.199 C 178.935 231.199,178.410 230.810,177.972 230.335 C 177.534 229.859,176.289 228.734,175.205 227.834 C 161.875 216.764,146.374 200.037,138.588 188.320 C 137.956 187.369,137.155 186.172,136.809 185.660 C 134.357 182.033,131.431 177.130,129.295 173.071 C 126.334 167.442,124.433 163.610,124.098 162.599 C 123.895 161.987,123.374 160.964,122.940 160.324 C 122.506 159.685,122.065 158.781,121.959 158.316 C 121.854 157.852,121.361 156.511,120.864 155.337 C 119.056 151.065,117.812 147.905,117.180 145.977 C 116.825 144.893,116.190 143.194,115.770 142.200 C 115.350 141.207,114.911 139.729,114.796 138.916 C 114.680 138.103,114.088 136.108,113.480 134.483 C 111.834 130.083,109.672 123.098,109.680 122.206 C 109.685 121.776,109.253 120.151,108.722 118.594 C 108.190 117.037,107.585 114.729,107.378 113.465 C 107.170 112.200,106.640 109.816,106.201 108.166 C 104.008 99.931,103.695 96.316,105.022 94.539 C 106.624 92.392,107.844 90.836,109.518 88.808 C 110.424 87.710,111.979 85.740,112.972 84.431 C 113.966 83.121,115.794 80.848,117.036 79.380 C 118.278 77.911,119.899 75.891,120.637 74.890 C 121.376 73.889,122.502 72.457,123.141 71.706 C 123.780 70.956,125.337 69.047,126.601 67.464 C 130.720 62.308,131.705 61.254,132.774 60.862 C 134.829 60.109,265.194 60.294,266.863 61.053 M178.818 87.917 C 177.432 88.269,177.257 88.689,177.408 91.287 C 177.487 92.647,177.763 94.147,178.021 94.619 C 178.278 95.092,178.883 96.200,179.363 97.082 C 181.126 100.317,185.534 104.099,188.730 105.119 C 190.535 105.695,221.673 105.964,222.998 105.415 C 224.901 104.626,225.005 104.131,224.895 96.380 C 224.798 89.562,224.772 89.320,224.047 88.596 L 223.299 87.849 201.387 87.799 C 189.335 87.772,179.179 87.825,178.818 87.917 M208.046 110.020 C 206.962 110.172,205.189 110.749,204.105 111.302 C 203.021 111.855,201.958 112.309,201.743 112.311 C 200.764 112.322,197.343 116.061,196.204 118.365 C 194.523 121.767,194.436 123.381,194.426 151.569 C 194.415 182.220,194.043 185.339,189.893 189.575 L 188.363 191.136 189.101 191.874 C 190.281 193.052,193.369 192.911,195.731 191.570 C 196.724 191.006,198.200 190.436,199.009 190.304 C 199.819 190.172,200.932 189.721,201.482 189.301 C 202.032 188.882,203.069 188.272,203.786 187.945 C 205.390 187.215,209.070 184.721,209.426 184.122 C 209.570 183.880,210.478 182.986,211.443 182.135 C 214.627 179.329,217.957 174.946,219.195 171.933 C 219.489 171.217,219.932 170.405,220.179 170.127 C 221.255 168.920,223.371 162.631,224.051 158.621 C 224.697 154.808,224.756 153.040,224.877 133.826 C 225.013 112.023,224.960 111.071,223.552 110.271 C 222.681 109.776,211.113 109.589,208.046 110.020 M20.199 141.753 C 18.046 143.905,21.274 154.744,25.750 160.395 C 27.282 162.329,32.332 167.285,33.214 167.720 C 33.641 167.930,34.655 168.415,35.468 168.796 C 36.281 169.178,37.463 169.779,38.095 170.131 C 39.437 170.878,45.005 171.051,46.454 170.391 C 47.961 169.704,47.271 167.524,44.559 164.399 C 43.603 163.298,42.469 161.880,42.040 161.248 C 41.610 160.616,40.834 159.581,40.316 158.949 C 39.798 158.317,38.223 156.396,36.817 154.680 C 34.226 151.520,27.984 145.336,26.089 144.051 C 25.520 143.665,24.479 142.952,23.775 142.467 C 22.000 141.241,20.925 141.027,20.199 141.753 M380.259 141.956 C 379.787 142.181,378.974 142.704,378.452 143.120 C 377.931 143.535,376.544 144.645,375.369 145.586 C 373.038 147.455,367.858 152.817,365.517 155.785 C 364.704 156.815,363.522 158.299,362.890 159.081 C 362.258 159.864,361.149 161.284,360.427 162.237 C 359.704 163.190,358.515 164.659,357.783 165.501 C 353.894 169.980,354.145 170.561,360.027 170.707 L 364.039 170.807 365.835 169.640 C 366.822 168.998,367.795 168.473,367.998 168.473 C 368.420 168.473,371.977 165.699,373.830 163.925 C 378.031 159.903,382.812 150.210,383.421 144.480 C 383.690 141.941,382.420 140.927,380.259 141.956 M73.820 149.343 C 71.477 152.026,70.272 159.378,69.930 173.071 C 69.780 179.122,69.562 184.592,69.448 185.228 C 69.166 186.794,70.090 187.691,71.677 187.393 C 74.469 186.869,79.696 180.483,80.485 176.631 C 80.683 175.666,81.135 173.873,81.491 172.647 C 82.292 169.884,82.342 165.432,81.600 162.950 C 81.313 161.990,80.875 160.049,80.627 158.636 C 79.601 152.800,75.587 147.320,73.820 149.343 M326.264 149.559 C 323.596 151.462,321.025 160.173,321.021 167.323 L 321.018 172.906 322.253 176.300 C 324.167 181.563,325.398 183.398,328.703 185.918 C 332.013 188.442,333.973 187.868,333.324 184.565 C 333.164 183.752,333.027 179.241,333.019 174.540 C 333.004 165.225,332.731 162.060,331.535 157.307 C 331.103 155.591,330.579 153.418,330.371 152.479 C 329.754 149.703,327.905 148.388,326.264 149.559 M86.301 185.304 C 85.640 186.460,85.824 191.783,86.643 195.238 C 87.029 196.864,87.501 199.228,87.691 200.493 C 87.882 201.757,88.403 203.900,88.850 205.255 C 89.639 207.651,91.010 212.935,91.704 216.256 C 92.684 220.948,96.048 219.436,97.916 213.465 C 99.363 208.838,98.443 198.012,96.411 195.754 C 96.156 195.470,95.655 194.499,95.299 193.596 C 93.144 188.129,87.603 183.023,86.301 185.304 M313.356 185.548 C 312.610 186.088,311.598 187.159,311.108 187.929 C 310.618 188.698,309.962 189.622,309.650 189.984 C 307.003 193.053,304.023 201.965,303.995 206.897 C 303.966 212.085,305.974 217.445,308.471 218.843 L 309.718 219.540 310.524 218.619 C 310.987 218.089,311.330 217.288,311.330 216.734 C 311.330 216.205,311.762 214.403,312.289 212.730 C 312.817 211.057,313.417 208.801,313.622 207.718 C 313.828 206.634,314.355 204.713,314.793 203.448 C 315.825 200.472,317.366 189.944,317.124 187.521 C 316.830 184.567,315.599 183.923,313.356 185.548 M37.838 199.745 C 32.890 201.027,45.720 213.422,53.431 214.809 C 54.479 214.997,56.276 215.437,57.424 215.786 C 60.202 216.631,60.941 216.594,64.737 215.423 C 70.191 213.740,70.032 211.211,64.368 209.524 C 63.118 209.152,61.683 208.508,61.179 208.093 C 60.675 207.678,59.606 207.081,58.804 206.767 C 58.001 206.452,56.966 205.924,56.502 205.594 C 56.038 205.264,54.999 204.816,54.193 204.599 C 53.387 204.382,52.312 203.855,51.805 203.429 C 50.959 202.717,49.037 201.977,48.023 201.972 C 47.794 201.971,47.055 201.627,46.381 201.208 C 44.259 199.886,40.065 199.168,37.838 199.745 M361.159 199.679 C 359.250 199.861,358.287 200.134,357.337 200.762 C 356.639 201.224,355.275 201.811,354.306 202.065 C 353.338 202.320,351.814 202.994,350.921 203.563 C 350.028 204.132,349.132 204.598,348.931 204.598 C 348.550 204.598,343.221 207.261,341.215 208.453 C 340.583 208.829,339.138 209.392,338.004 209.705 C 329.478 212.053,337.672 217.561,346.531 215.437 C 348.033 215.077,349.653 214.782,350.133 214.781 C 351.104 214.778,356.537 212.072,357.307 211.208 C 357.578 210.904,358.326 210.332,358.970 209.936 C 360.221 209.168,363.844 205.588,365.498 203.485 C 367.211 201.307,366.697 199.255,364.472 199.389 C 364.053 199.414,362.563 199.545,361.159 199.679 M328.955 205.145 C 328.555 205.545,328.728 206.240,329.228 206.240 C 329.502 206.240,329.721 205.948,329.721 205.583 C 329.721 204.929,329.371 204.729,328.955 205.145 M74.131 205.801 C 74.042 205.952,74.125 206.445,74.316 206.897 L 74.662 207.718 74.797 206.941 C 74.934 206.155,74.431 205.294,74.131 205.801 M326.582 208.692 C 325.960 209.162,325.963 209.175,326.683 209.185 C 327.126 209.191,327.422 208.998,327.422 208.703 C 327.422 208.094,327.373 208.094,326.582 208.692 M76.204 209.216 C 76.188 209.808,78.054 211.711,78.355 211.410 C 78.654 211.111,78.189 210.509,77.659 210.509 C 77.405 210.509,76.976 210.103,76.707 209.606 C 76.417 209.072,76.211 208.913,76.204 209.216 M324.846 210.088 C 324.423 210.168,323.832 210.666,323.533 211.194 C 323.233 211.721,322.728 212.237,322.410 212.339 C 322.092 212.442,321.621 212.933,321.364 213.431 C 321.106 213.929,320.258 214.861,319.479 215.502 C 318.700 216.142,316.215 218.463,313.957 220.658 C 304.865 229.500,297.188 236.436,292.477 240.066 C 291.422 240.878,289.412 242.504,288.010 243.678 C 284.398 246.705,280.138 250.046,278.982 250.760 C 278.440 251.094,277.036 252.205,275.862 253.228 C 274.688 254.251,273.279 255.365,272.730 255.705 C 272.182 256.044,271.221 256.722,270.596 257.211 C 269.970 257.700,267.759 259.349,265.681 260.876 C 263.604 262.403,261.461 264.013,260.920 264.454 C 260.378 264.895,259.593 265.435,259.176 265.655 C 258.758 265.874,257.281 266.908,255.892 267.952 C 254.503 268.996,252.849 270.111,252.217 270.430 C 251.585 270.749,250.624 271.409,250.082 271.897 C 249.540 272.385,248.777 272.997,248.387 273.256 C 247.996 273.515,245.949 274.910,243.837 276.355 C 239.013 279.655,239.452 279.406,238.064 279.626 C 237.223 279.760,236.598 280.167,235.894 281.040 C 234.983 282.170,233.319 283.398,228.571 286.446 C 227.578 287.083,225.066 288.714,222.989 290.069 C 220.911 291.424,218.768 292.775,218.227 293.070 C 217.685 293.365,216.355 294.188,215.271 294.898 C 214.187 295.609,212.562 296.587,211.658 297.072 C 210.755 297.557,209.581 298.318,209.050 298.763 C 208.518 299.208,207.705 299.715,207.243 299.889 C 206.782 300.064,205.738 300.633,204.923 301.154 C 204.109 301.675,202.817 302.202,202.053 302.324 C 200.125 302.632,199.494 302.361,193.598 298.686 C 192.439 297.964,190.506 296.782,189.303 296.059 C 188.100 295.337,186.431 294.292,185.594 293.738 C 184.757 293.184,183.837 292.643,183.550 292.537 C 183.262 292.430,181.380 291.258,179.366 289.932 C 177.352 288.606,173.998 286.412,171.912 285.057 C 166.426 281.493,165.896 280.713,167.492 278.553 C 170.595 274.356,163.337 263.393,155.071 259.790 C 148.843 257.076,151.316 262.469,160.935 272.578 C 162.492 274.215,164.714 276.946,165.148 277.756 C 166.204 279.730,164.848 280.672,163.118 279.166 C 162.541 278.663,161.567 277.995,160.953 277.680 C 160.339 277.366,158.788 276.344,157.505 275.410 C 156.222 274.475,154.527 273.271,153.737 272.734 C 152.058 271.591,150.307 270.356,147.462 268.309 C 146.333 267.496,144.630 266.314,143.679 265.681 C 142.727 265.049,141.098 263.867,140.059 263.054 C 139.019 262.241,137.487 261.104,136.654 260.527 C 134.509 259.042,132.239 257.353,128.574 254.516 C 126.824 253.161,124.847 251.683,124.180 251.232 C 123.514 250.780,121.926 249.524,120.651 248.440 C 119.377 247.356,116.806 245.287,114.939 243.842 C 109.612 239.721,107.668 238.084,103.188 233.953 C 102.051 232.905,100.781 231.819,100.366 231.541 C 99.472 230.941,93.268 225.228,89.474 221.511 C 80.323 212.543,78.489 210.960,78.489 212.028 C 78.489 212.280,80.995 216.149,81.409 216.535 C 82.448 217.505,83.172 218.266,85.222 220.540 C 88.639 224.332,94.336 230.232,97.852 233.622 C 99.561 235.270,101.408 237.057,101.957 237.594 C 106.833 242.363,118.378 252.517,122.433 255.602 C 123.100 256.110,124.163 257.012,124.795 257.606 C 125.427 258.201,127.126 259.594,128.571 260.702 C 132.782 263.932,133.390 264.417,135.468 266.200 C 136.552 267.130,138.586 268.715,139.990 269.722 C 147.309 274.973,146.278 276.976,137.777 274.020 C 136.518 273.582,134.542 273.073,133.385 272.888 C 132.229 272.704,130.377 272.166,129.270 271.695 C 126.651 270.578,122.574 270.248,121.737 271.085 C 120.831 271.990,121.064 272.398,123.563 274.284 C 131.417 280.212,139.784 281.749,145.022 278.225 C 148.301 276.020,148.435 276.063,156.033 281.806 C 158.089 283.359,160.361 285.023,161.084 285.503 C 161.806 285.982,163.284 287.040,164.368 287.854 C 166.581 289.515,171.039 292.615,175.698 295.733 C 177.414 296.882,179.261 298.172,179.803 298.601 C 181.467 299.916,187.727 304.088,191.759 306.568 C 192.346 306.929,194.318 308.331,196.140 309.683 C 199.824 312.415,202.056 312.951,203.968 311.564 C 205.806 310.230,211.477 306.387,212.917 305.500 C 213.429 305.184,215.128 304.007,216.694 302.884 C 218.259 301.761,220.215 300.480,221.039 300.036 C 221.863 299.593,222.740 298.986,222.987 298.688 C 223.235 298.390,223.964 297.856,224.609 297.501 C 225.253 297.146,226.667 296.193,227.750 295.382 C 229.885 293.785,232.651 291.849,234.290 290.805 C 234.857 290.443,236.130 289.547,237.118 288.812 C 238.107 288.078,239.231 287.265,239.616 287.006 C 240.001 286.747,241.302 285.796,242.508 284.893 C 247.754 280.965,251.648 278.112,252.835 277.327 L 254.112 276.481 257.480 278.346 L 260.848 280.210 264.496 280.064 C 267.298 279.951,268.449 279.763,269.458 279.252 C 270.181 278.886,271.500 278.408,272.390 278.190 C 275.316 277.473,281.773 273.147,281.773 271.903 C 281.773 270.331,277.224 270.128,274.110 271.561 C 273.237 271.962,271.067 272.569,269.288 272.908 C 267.509 273.247,265.637 273.736,265.128 273.996 C 262.845 275.163,258.826 275.528,257.948 274.650 C 257.231 273.933,257.804 273.413,267.473 266.010 C 268.063 265.558,269.120 264.747,269.823 264.206 C 270.525 263.666,272.224 262.262,273.598 261.087 C 274.972 259.911,277.407 257.915,279.011 256.650 C 281.988 254.303,284.395 252.255,287.787 249.183 C 288.837 248.233,290.341 246.938,291.129 246.305 C 296.183 242.255,313.710 225.268,316.158 222.048 C 316.657 221.391,318.075 219.764,319.308 218.432 C 320.541 217.100,322.121 215.253,322.818 214.327 C 323.515 213.401,324.467 212.214,324.933 211.689 C 325.591 210.948,326.143 209.654,325.698 209.897 C 325.653 209.922,325.269 210.008,324.846 210.088 M285.550 221.207 C 276.348 228.523,271.060 240.384,274.019 247.075 C 275.406 250.210,275.988 249.905,278.546 244.702 C 279.489 242.784,280.674 240.639,281.181 239.934 C 281.687 239.230,282.102 238.465,282.102 238.235 C 282.102 238.005,282.452 237.399,282.879 236.889 C 283.307 236.378,284.116 235.074,284.676 233.990 C 285.237 232.906,285.905 231.650,286.160 231.199 C 289.439 225.397,290.769 221.147,289.655 220.033 C 288.663 219.041,288.057 219.214,285.550 221.207 M113.089 220.551 C 112.561 221.357,112.570 221.479,113.274 223.096 C 113.680 224.030,114.245 225.460,114.529 226.273 C 114.813 227.085,115.309 228.092,115.632 228.510 C 115.955 228.928,116.394 229.814,116.609 230.480 C 117.007 231.718,118.365 234.133,120.589 237.558 C 121.276 238.617,121.839 239.630,121.839 239.810 C 121.839 239.989,122.255 240.674,122.764 241.332 C 123.273 241.990,123.941 243.206,124.249 244.035 C 127.384 252.479,130.854 248.874,129.230 238.859 C 127.828 230.218,115.740 216.506,113.089 220.551 M75.495 240.184 C 74.769 241.777,76.788 244.210,80.854 246.641 C 82.064 247.365,83.137 248.092,83.239 248.256 C 83.340 248.420,84.187 248.808,85.121 249.118 C 86.054 249.428,87.313 249.973,87.917 250.330 C 90.042 251.584,101.566 251.859,103.819 250.711 C 105.571 249.817,106.732 248.581,106.732 247.609 C 106.732 246.379,106.461 246.249,103.288 245.959 C 101.444 245.791,100.088 245.455,98.966 244.886 C 98.067 244.431,96.380 243.887,95.217 243.678 C 94.055 243.469,92.049 242.878,90.760 242.364 C 89.434 241.835,86.869 241.202,84.849 240.904 C 82.886 240.615,80.555 240.161,79.669 239.894 C 77.227 239.159,75.920 239.250,75.495 240.184 M323.481 239.914 C 322.668 240.167,320.486 240.600,318.633 240.876 C 316.779 241.152,314.340 241.757,313.214 242.221 C 312.087 242.685,310.063 243.280,308.715 243.543 C 307.367 243.807,305.446 244.399,304.446 244.860 C 303.292 245.392,301.617 245.803,299.862 245.987 C 295.677 246.425,295.135 247.990,298.444 250.083 L 300.000 251.067 306.897 251.067 C 313.323 251.067,313.873 251.020,314.965 250.375 C 315.610 249.993,316.908 249.426,317.849 249.113 C 318.790 248.801,319.962 248.209,320.454 247.798 C 320.945 247.388,321.973 246.734,322.739 246.345 C 329.053 243.141,329.647 237.990,323.481 239.914 M245.715 260.706 C 244.216 261.546,242.516 262.714,241.938 263.302 C 241.360 263.890,240.390 264.874,239.783 265.488 C 236.127 269.187,233.398 276.420,235.083 277.946 C 236.135 278.897,238.424 278.143,238.424 276.846 C 238.424 276.472,241.739 272.561,244.965 269.130 C 252.711 260.890,253.096 256.572,245.715 260.706 " stroke="none" fill="#d4b15d" fill-rule="evenodd"></path><path id="path1" d="M0.000 164.204 L 0.000 328.407 200.000 328.407 L 400.000 328.407 400.000 164.204 L 400.000 0.000 200.000 0.000 L 0.000 0.000 0.000 164.204 M205.818 10.274 C 206.338 10.794,206.422 11.757,206.568 18.886 C 206.783 29.375,205.830 28.376,215.743 28.506 C 226.015 28.642,225.218 28.977,227.422 23.598 C 228.778 20.290,231.465 17.552,234.568 16.318 C 239.341 14.420,240.091 15.206,240.374 22.405 C 240.629 28.918,239.837 28.382,249.390 28.511 C 259.057 28.641,258.970 28.663,260.370 25.853 C 262.938 20.698,267.462 17.828,269.489 20.067 C 270.885 21.608,270.547 36.023,269.074 37.773 L 268.245 38.758 199.323 38.673 C 133.685 38.592,130.373 38.560,129.815 38.002 C 129.287 37.475,129.218 36.557,129.130 28.859 C 129.025 19.642,129.069 19.376,130.705 19.376 C 133.756 19.376,136.846 21.898,138.608 25.825 C 139.844 28.580,139.813 28.571,148.768 28.571 C 158.961 28.571,158.525 28.869,158.687 21.781 C 158.836 15.205,160.241 14.057,165.080 16.561 C 168.968 18.572,170.968 21.031,172.756 25.999 C 173.658 28.505,173.907 28.571,182.438 28.571 C 193.157 28.571,192.221 29.488,192.444 18.778 C 192.651 8.865,192.086 9.529,200.235 9.627 C 204.541 9.680,205.314 9.769,205.818 10.274 M272.983 49.267 C 273.799 49.721,275.327 51.489,282.013 59.715 C 283.236 61.220,284.690 62.994,285.243 63.656 C 285.797 64.318,286.599 65.378,287.026 66.010 C 287.452 66.642,288.554 68.046,289.473 69.130 C 291.328 71.317,293.414 73.900,294.417 75.252 C 294.778 75.739,296.002 77.295,297.137 78.709 C 299.300 81.407,299.437 81.575,303.098 86.043 C 308.286 92.374,308.856 94.095,307.435 99.134 C 307.060 100.465,306.595 102.755,306.402 104.225 C 306.209 105.694,305.622 108.374,305.099 110.181 C 304.575 111.987,303.983 114.425,303.783 115.599 C 303.583 116.773,303.071 118.768,302.645 120.033 C 302.219 121.297,301.766 123.366,301.638 124.631 C 301.503 125.960,301.016 127.829,300.483 129.064 C 299.977 130.238,299.322 132.159,299.027 133.333 C 298.733 134.507,298.148 136.355,297.726 137.438 C 297.305 138.522,296.789 140.222,296.580 141.215 C 296.371 142.209,295.834 143.724,295.386 144.584 C 294.939 145.443,294.374 146.999,294.130 148.041 C 293.887 149.083,293.466 150.376,293.194 150.912 C 292.923 151.449,292.368 152.923,291.961 154.187 C 291.555 155.452,290.884 157.079,290.471 157.804 C 290.057 158.529,289.476 159.957,289.179 160.978 C 288.882 161.999,288.432 163.007,288.179 163.217 C 287.926 163.427,287.550 164.142,287.345 164.805 C 286.956 166.057,281.933 176.228,279.848 179.984 C 279.191 181.167,278.301 182.793,277.870 183.596 C 277.438 184.400,276.515 185.857,275.817 186.835 C 275.119 187.813,274.548 188.741,274.548 188.899 C 274.548 189.233,269.933 196.068,268.675 197.595 C 268.203 198.169,267.077 199.705,266.174 201.009 C 264.735 203.087,261.541 207.064,259.346 209.511 C 258.947 209.956,258.129 210.916,257.528 211.646 C 254.688 215.096,241.717 228.328,240.016 229.512 C 239.592 229.808,238.722 230.567,238.084 231.199 C 236.454 232.812,232.549 236.371,230.695 237.931 C 229.837 238.654,228.438 239.836,227.587 240.558 C 226.736 241.281,224.820 242.833,223.328 244.007 C 221.837 245.181,219.931 246.740,219.093 247.472 C 218.255 248.204,216.757 249.419,215.764 250.171 C 208.178 255.917,207.090 256.757,206.404 257.398 C 204.715 258.977,201.592 260.541,199.841 260.686 C 197.880 260.849,196.173 259.925,191.441 256.140 C 190.278 255.210,188.918 254.237,188.419 253.979 C 187.124 253.308,182.602 249.894,179.146 246.979 C 177.521 245.607,175.378 243.915,174.384 243.217 C 173.391 242.520,171.638 240.930,170.490 239.684 C 169.341 238.438,167.937 237.185,167.370 236.901 C 166.802 236.616,164.860 234.944,163.054 233.185 C 161.248 231.427,157.791 228.080,155.373 225.749 C 147.622 218.279,139.957 209.976,136.115 204.890 C 135.759 204.419,134.803 203.181,133.990 202.140 C 130.844 198.108,125.115 189.773,124.093 187.741 C 123.714 186.988,123.173 186.108,122.890 185.786 C 122.343 185.164,120.946 182.807,119.050 179.310 C 118.414 178.136,117.749 176.954,117.572 176.683 C 117.395 176.412,116.876 175.378,116.420 174.384 C 115.964 173.391,115.386 172.209,115.136 171.757 C 113.939 169.591,112.039 165.545,111.666 164.368 C 111.438 163.645,110.969 162.587,110.624 162.015 C 110.280 161.444,109.766 160.188,109.483 159.224 C 109.200 158.260,108.691 157.016,108.351 156.460 C 108.011 155.903,107.300 154.204,106.771 152.683 C 106.241 151.162,105.191 148.218,104.436 146.141 C 103.681 144.064,102.722 141.108,102.305 139.573 C 101.888 138.038,101.303 136.215,101.004 135.522 C 100.473 134.291,99.430 130.612,97.545 123.317 C 97.032 121.330,96.306 118.932,95.932 117.987 C 95.559 117.043,95.090 114.924,94.889 113.278 C 94.689 111.632,94.236 109.449,93.882 108.427 C 93.529 107.405,92.954 104.943,92.605 102.956 C 92.255 100.969,91.788 98.344,91.566 97.123 C 90.918 93.559,91.749 91.455,95.633 86.818 C 96.409 85.892,98.227 83.624,99.672 81.778 C 102.214 78.532,105.417 74.545,109.296 69.798 C 110.325 68.540,111.599 66.914,112.128 66.186 C 112.657 65.457,113.913 63.871,114.919 62.661 C 115.925 61.451,117.414 59.619,118.227 58.590 C 124.196 51.029,125.801 49.370,127.522 48.981 C 130.111 48.394,271.915 48.674,272.983 49.267 M132.774 60.862 C 131.705 61.254,130.720 62.308,126.601 67.464 C 125.337 69.047,123.780 70.956,123.141 71.706 C 122.502 72.457,121.376 73.889,120.637 74.890 C 119.899 75.891,118.278 77.911,117.036 79.380 C 115.794 80.848,113.966 83.121,112.972 84.431 C 111.979 85.740,110.424 87.710,109.518 88.808 C 107.844 90.836,106.624 92.392,105.022 94.539 C 103.695 96.316,104.008 99.931,106.201 108.166 C 106.640 109.816,107.170 112.200,107.378 113.465 C 107.585 114.729,108.190 117.037,108.722 118.594 C 109.253 120.151,109.685 121.776,109.680 122.206 C 109.672 123.098,111.834 130.083,113.480 134.483 C 114.088 136.108,114.680 138.103,114.796 138.916 C 114.911 139.729,115.350 141.207,115.770 142.200 C 116.190 143.194,116.825 144.893,117.180 145.977 C 117.812 147.905,119.056 151.065,120.864 155.337 C 121.361 156.511,121.854 157.852,121.959 158.316 C 122.065 158.781,122.506 159.685,122.940 160.324 C 123.374 160.964,123.895 161.987,124.098 162.599 C 124.433 163.610,126.334 167.442,129.295 173.071 C 131.431 177.130,134.357 182.033,136.809 185.660 C 137.155 186.172,137.956 187.369,138.588 188.320 C 146.374 200.037,161.875 216.764,175.205 227.834 C 176.289 228.734,177.534 229.859,177.972 230.335 C 178.410 230.810,178.935 231.199,179.139 231.199 C 179.995 231.199,185.701 235.688,191.074 240.588 C 192.281 241.689,193.970 243.063,194.828 243.642 C 195.686 244.221,196.388 244.832,196.388 244.999 C 196.388 245.536,198.285 246.305,199.609 246.305 C 201.094 246.305,202.037 245.728,206.521 242.076 C 208.211 240.699,209.910 239.355,210.297 239.088 C 210.685 238.821,212.025 237.787,213.276 236.789 C 214.527 235.792,216.522 234.205,217.709 233.263 C 218.897 232.321,220.302 231.139,220.832 230.636 C 221.362 230.133,222.706 228.974,223.819 228.061 C 232.866 220.638,243.398 210.212,250.511 201.642 C 251.635 200.287,253.062 198.588,253.683 197.865 C 256.384 194.721,263.797 183.922,267.416 177.861 C 268.960 175.275,273.889 165.731,275.317 162.562 C 275.764 161.568,276.798 159.278,277.613 157.471 C 278.428 155.665,279.267 153.522,279.479 152.709 C 279.690 151.897,280.137 150.783,280.472 150.236 C 280.808 149.688,281.244 148.515,281.443 147.629 C 281.641 146.743,282.227 145.048,282.745 143.863 C 283.263 142.677,283.940 140.821,284.249 139.737 C 284.559 138.654,285.089 137.219,285.427 136.549 C 285.766 135.879,286.338 134.062,286.700 132.512 C 287.061 130.962,287.633 129.146,287.971 128.476 C 288.309 127.806,288.758 126.223,288.969 124.959 C 289.179 123.695,289.783 121.330,290.309 119.704 C 290.836 118.079,291.433 115.795,291.637 114.629 C 291.841 113.463,292.357 111.394,292.784 110.031 C 293.211 108.668,293.734 106.232,293.946 104.617 C 294.158 103.003,294.609 100.874,294.949 99.886 C 295.744 97.576,295.729 96.374,294.894 95.290 C 294.524 94.810,293.231 93.161,292.020 91.626 C 290.810 90.090,289.376 88.270,288.834 87.581 C 284.642 82.246,279.180 75.414,277.912 73.920 C 277.236 73.123,276.166 71.791,275.534 70.960 C 274.901 70.129,273.343 68.195,272.071 66.662 C 270.798 65.129,269.409 63.378,268.983 62.770 C 267.206 60.230,273.492 60.439,199.672 60.459 C 150.126 60.472,133.565 60.572,132.774 60.862 M224.047 88.596 C 224.772 89.320,224.798 89.562,224.895 96.380 C 225.005 104.131,224.901 104.626,222.998 105.415 C 221.673 105.964,190.535 105.695,188.730 105.119 C 185.534 104.099,181.126 100.317,179.363 97.082 C 178.883 96.200,178.278 95.092,178.021 94.619 C 177.352 93.395,177.129 88.923,177.712 88.449 C 178.542 87.774,179.416 87.750,201.387 87.799 L 223.299 87.849 224.047 88.596 M223.552 110.271 C 224.960 111.071,225.013 112.023,224.877 133.826 C 224.756 153.040,224.697 154.808,224.051 158.621 C 223.371 162.631,221.255 168.920,220.179 170.127 C 219.932 170.405,219.489 171.217,219.195 171.933 C 217.957 174.946,214.627 179.329,211.443 182.135 C 210.478 182.986,209.570 183.880,209.426 184.122 C 209.070 184.721,205.390 187.215,203.786 187.945 C 203.069 188.272,202.032 188.882,201.482 189.301 C 200.932 189.721,199.819 190.172,199.009 190.304 C 198.200 190.436,196.724 191.006,195.731 191.570 C 193.369 192.911,190.281 193.052,189.101 191.874 L 188.363 191.136 189.893 189.575 C 194.043 185.339,194.415 182.220,194.426 151.569 C 194.436 123.381,194.523 121.767,196.204 118.365 C 197.343 116.061,200.764 112.322,201.743 112.311 C 201.958 112.309,203.021 111.855,204.105 111.302 C 207.128 109.760,221.329 109.007,223.552 110.271 M23.775 142.467 C 24.479 142.952,25.520 143.665,26.089 144.051 C 27.984 145.336,34.226 151.520,36.817 154.680 C 38.223 156.396,39.798 158.317,40.316 158.949 C 40.834 159.581,41.610 160.616,42.040 161.248 C 42.469 161.880,43.603 163.298,44.559 164.399 C 47.271 167.524,47.961 169.704,46.454 170.391 C 45.005 171.051,39.437 170.878,38.095 170.131 C 37.463 169.779,36.281 169.178,35.468 168.796 C 34.655 168.415,33.641 167.930,33.214 167.720 C 32.332 167.285,27.282 162.329,25.750 160.395 C 22.404 156.171,20.038 150.386,19.798 145.843 C 19.539 140.925,20.437 140.162,23.775 142.467 M383.332 142.287 C 384.181 143.525,381.808 152.033,379.543 155.873 C 377.380 159.539,375.196 162.617,373.830 163.925 C 371.977 165.699,368.420 168.473,367.998 168.473 C 367.795 168.473,366.822 168.998,365.835 169.640 L 364.039 170.807 360.027 170.707 C 354.145 170.561,353.894 169.980,357.783 165.501 C 358.515 164.659,359.704 163.190,360.427 162.237 C 361.149 161.284,362.258 159.864,362.890 159.081 C 363.522 158.299,364.704 156.815,365.517 155.785 C 367.858 152.817,373.038 147.455,375.369 145.586 C 376.544 144.645,377.931 143.535,378.452 143.120 C 380.408 141.562,382.581 141.191,383.332 142.287 M76.084 149.461 C 77.668 150.440,80.021 155.194,80.627 158.636 C 80.875 160.049,81.313 161.990,81.600 162.950 C 82.342 165.432,82.292 169.884,81.491 172.647 C 81.135 173.873,80.683 175.666,80.485 176.631 C 79.696 180.483,74.469 186.869,71.677 187.393 C 70.090 187.691,69.166 186.794,69.448 185.228 C 69.562 184.592,69.780 179.122,69.930 173.071 C 70.242 160.566,70.509 158.193,72.148 153.366 C 73.765 148.599,74.120 148.247,76.084 149.461 M329.155 149.934 C 329.651 150.430,330.146 151.466,330.371 152.479 C 330.579 153.418,331.103 155.591,331.535 157.307 C 332.731 162.060,333.004 165.225,333.019 174.540 C 333.027 179.241,333.164 183.752,333.324 184.565 C 333.973 187.868,332.013 188.442,328.703 185.918 C 325.398 183.398,324.167 181.563,322.253 176.300 L 321.018 172.906 321.021 167.323 C 321.027 156.429,325.687 146.466,329.155 149.934 M88.434 185.020 C 90.485 185.903,93.995 190.287,95.299 193.596 C 95.655 194.499,96.156 195.470,96.411 195.754 C 98.443 198.012,99.363 208.838,97.916 213.465 C 96.048 219.436,92.684 220.948,91.704 216.256 C 91.010 212.935,89.639 207.651,88.850 205.255 C 88.403 203.900,87.882 201.757,87.691 200.493 C 87.501 199.228,87.029 196.864,86.643 195.238 C 85.488 190.367,85.709 184.565,87.050 184.565 C 87.230 184.565,87.853 184.770,88.434 185.020 M316.235 185.140 C 317.701 186.328,316.811 197.630,314.793 203.448 C 314.355 204.713,313.828 206.634,313.622 207.718 C 313.417 208.801,312.817 211.057,312.289 212.730 C 311.762 214.403,311.330 216.205,311.330 216.734 C 311.330 217.288,310.987 218.089,310.524 218.619 L 309.718 219.540 308.471 218.843 C 305.974 217.445,303.966 212.085,303.995 206.897 C 304.023 201.965,307.003 193.053,309.650 189.984 C 309.962 189.622,310.618 188.698,311.108 187.929 C 312.771 185.320,314.978 184.120,316.235 185.140 M44.499 200.191 C 44.860 200.331,45.707 200.788,46.381 201.208 C 47.055 201.627,47.794 201.971,48.023 201.972 C 49.037 201.977,50.959 202.717,51.805 203.429 C 52.312 203.855,53.387 204.382,54.193 204.599 C 54.999 204.816,56.038 205.264,56.502 205.594 C 56.966 205.924,58.001 206.452,58.804 206.767 C 59.606 207.081,60.675 207.678,61.179 208.093 C 61.683 208.508,63.118 209.152,64.368 209.524 C 70.032 211.211,70.191 213.740,64.737 215.423 C 60.941 216.594,60.202 216.631,57.424 215.786 C 56.276 215.437,54.479 214.997,53.431 214.809 C 47.440 213.731,35.829 204.080,36.639 200.851 C 36.970 199.533,41.752 199.132,44.499 200.191 M365.867 199.683 C 366.865 200.217,366.695 201.963,365.498 203.485 C 363.844 205.588,360.221 209.168,358.970 209.936 C 358.326 210.332,357.578 210.904,357.307 211.208 C 356.537 212.072,351.104 214.778,350.133 214.781 C 349.653 214.782,348.033 215.077,346.531 215.437 C 343.025 216.278,342.230 216.262,338.529 215.277 C 333.153 213.846,332.895 211.112,338.004 209.705 C 339.138 209.392,340.583 208.829,341.215 208.453 C 343.221 207.261,348.550 204.598,348.931 204.598 C 349.132 204.598,350.028 204.132,350.921 203.563 C 351.814 202.994,353.338 202.320,354.306 202.065 C 355.275 201.811,356.639 201.224,357.337 200.762 C 358.287 200.134,359.250 199.861,361.159 199.679 C 364.973 199.315,365.179 199.315,365.867 199.683 M329.721 205.583 C 329.721 205.948,329.502 206.240,329.228 206.240 C 328.728 206.240,328.555 205.545,328.955 205.145 C 329.371 204.729,329.721 204.929,329.721 205.583 M74.797 206.941 L 74.662 207.718 74.316 206.897 C 73.932 205.989,74.114 205.346,74.613 205.845 C 74.789 206.020,74.872 206.514,74.797 206.941 M327.422 208.703 C 327.422 208.998,327.126 209.191,326.683 209.185 C 325.963 209.175,325.960 209.162,326.582 208.692 C 327.373 208.094,327.422 208.094,327.422 208.703 M77.659 210.509 C 78.189 210.509,78.654 211.111,78.355 211.410 C 78.054 211.711,76.188 209.808,76.204 209.216 C 76.211 208.913,76.417 209.072,76.707 209.606 C 76.976 210.103,77.405 210.509,77.659 210.509 M325.780 210.294 C 325.780 210.537,325.399 211.165,324.933 211.689 C 324.467 212.214,323.515 213.401,322.818 214.327 C 322.121 215.253,320.541 217.100,319.308 218.432 C 318.075 219.764,316.657 221.391,316.158 222.048 C 313.710 225.268,296.183 242.255,291.129 246.305 C 290.341 246.938,288.837 248.233,287.787 249.183 C 284.395 252.255,281.988 254.303,279.011 256.650 C 277.407 257.915,274.972 259.911,273.598 261.087 C 272.224 262.262,270.525 263.666,269.823 264.206 C 269.120 264.747,268.063 265.558,267.473 266.010 C 257.804 273.413,257.231 273.933,257.948 274.650 C 258.826 275.528,262.845 275.163,265.128 273.996 C 265.637 273.736,267.509 273.247,269.288 272.908 C 271.067 272.569,273.237 271.962,274.110 271.561 C 277.224 270.128,281.773 270.331,281.773 271.903 C 281.773 273.147,275.316 277.473,272.390 278.190 C 271.500 278.408,270.181 278.886,269.458 279.252 C 268.449 279.763,267.298 279.951,264.496 280.064 L 260.848 280.210 257.480 278.346 L 254.112 276.481 252.835 277.327 C 251.648 278.112,247.754 280.965,242.508 284.893 C 241.302 285.796,240.001 286.747,239.616 287.006 C 239.231 287.265,238.107 288.078,237.118 288.812 C 236.130 289.547,234.857 290.443,234.290 290.805 C 232.651 291.849,229.885 293.785,227.750 295.382 C 226.667 296.193,225.253 297.146,224.609 297.501 C 223.964 297.856,223.235 298.390,222.987 298.688 C 222.740 298.986,221.863 299.593,221.039 300.036 C 220.215 300.480,218.259 301.761,216.694 302.884 C 215.128 304.007,213.429 305.184,212.917 305.500 C 211.477 306.387,205.806 310.230,203.968 311.564 C 202.056 312.951,199.824 312.415,196.140 309.683 C 194.318 308.331,192.346 306.929,191.759 306.568 C 187.727 304.088,181.467 299.916,179.803 298.601 C 179.261 298.172,177.414 296.882,175.698 295.733 C 171.039 292.615,166.581 289.515,164.368 287.854 C 163.284 287.040,161.806 285.982,161.084 285.503 C 160.361 285.023,158.089 283.359,156.033 281.806 C 148.435 276.063,148.301 276.020,145.022 278.225 C 139.784 281.749,131.417 280.212,123.563 274.284 C 121.064 272.398,120.831 271.990,121.737 271.085 C 122.574 270.248,126.651 270.578,129.270 271.695 C 130.377 272.166,132.229 272.704,133.385 272.888 C 134.542 273.073,136.518 273.582,137.777 274.020 C 146.278 276.976,147.309 274.973,139.990 269.722 C 138.586 268.715,136.552 267.130,135.468 266.200 C 133.390 264.417,132.782 263.932,128.571 260.702 C 127.126 259.594,125.427 258.201,124.795 257.606 C 124.163 257.012,123.100 256.110,122.433 255.602 C 118.378 252.517,106.833 242.363,101.957 237.594 C 101.408 237.057,99.561 235.270,97.852 233.622 C 94.336 230.232,88.639 224.332,85.222 220.540 C 83.172 218.266,82.448 217.505,81.409 216.535 C 80.995 216.149,78.489 212.280,78.489 212.028 C 78.489 210.960,80.323 212.543,89.474 221.511 C 93.268 225.228,99.472 230.941,100.366 231.541 C 100.781 231.819,102.051 232.905,103.188 233.953 C 107.668 238.084,109.612 239.721,114.939 243.842 C 116.806 245.287,119.377 247.356,120.651 248.440 C 121.926 249.524,123.514 250.780,124.180 251.232 C 124.847 251.683,126.824 253.161,128.574 254.516 C 132.239 257.353,134.509 259.042,136.654 260.527 C 137.487 261.104,139.019 262.241,140.059 263.054 C 141.098 263.867,142.727 265.049,143.679 265.681 C 144.630 266.314,146.333 267.496,147.462 268.309 C 150.307 270.356,152.058 271.591,153.737 272.734 C 154.527 273.271,156.222 274.475,157.505 275.410 C 158.788 276.344,160.339 277.366,160.953 277.680 C 161.567 277.995,162.541 278.663,163.118 279.166 C 164.848 280.672,166.204 279.730,165.148 277.756 C 164.714 276.946,162.492 274.215,160.935 272.578 C 151.316 262.469,148.843 257.076,155.071 259.790 C 163.337 263.393,170.595 274.356,167.492 278.553 C 165.896 280.713,166.426 281.493,171.912 285.057 C 173.998 286.412,177.352 288.606,179.366 289.932 C 181.380 291.258,183.262 292.430,183.550 292.537 C 183.837 292.643,184.757 293.184,185.594 293.738 C 186.431 294.292,188.100 295.337,189.303 296.059 C 190.506 296.782,192.439 297.964,193.598 298.686 C 199.494 302.361,200.125 302.632,202.053 302.324 C 202.817 302.202,204.109 301.675,204.923 301.154 C 205.738 300.633,206.782 300.064,207.243 299.889 C 207.705 299.715,208.518 299.208,209.050 298.763 C 209.581 298.318,210.755 297.557,211.658 297.072 C 212.562 296.587,214.187 295.609,215.271 294.898 C 216.355 294.188,217.685 293.365,218.227 293.070 C 218.768 292.775,220.911 291.424,222.989 290.069 C 225.066 288.714,227.578 287.083,228.571 286.446 C 233.319 283.398,234.983 282.170,235.894 281.040 C 236.598 280.167,237.223 279.760,238.064 279.626 C 239.452 279.406,239.013 279.655,243.837 276.355 C 245.949 274.910,247.996 273.515,248.387 273.256 C 248.777 272.997,249.540 272.385,250.082 271.897 C 250.624 271.409,251.585 270.749,252.217 270.430 C 252.849 270.111,254.503 268.996,255.892 267.952 C 257.281 266.908,258.758 265.874,259.176 265.655 C 259.593 265.435,260.378 264.895,260.920 264.454 C 261.461 264.013,263.604 262.403,265.681 260.876 C 267.759 259.349,269.970 257.700,270.596 257.211 C 271.221 256.722,272.182 256.044,272.730 255.705 C 273.279 255.365,274.688 254.251,275.862 253.228 C 277.036 252.205,278.440 251.094,278.982 250.760 C 280.138 250.046,284.398 246.705,288.010 243.678 C 289.412 242.504,291.422 240.878,292.477 240.066 C 297.188 236.436,304.865 229.500,313.957 220.658 C 316.215 218.463,318.700 216.142,319.479 215.502 C 320.258 214.861,321.106 213.929,321.364 213.431 C 321.621 212.933,322.092 212.442,322.410 212.339 C 322.728 212.237,323.233 211.721,323.533 211.194 C 323.832 210.666,324.423 210.168,324.846 210.088 C 325.269 210.008,325.653 209.922,325.698 209.897 C 325.743 209.872,325.780 210.051,325.780 210.294 M289.655 220.033 C 290.769 221.147,289.439 225.397,286.160 231.199 C 285.905 231.650,285.237 232.906,284.676 233.990 C 284.116 235.074,283.307 236.378,282.879 236.889 C 282.452 237.399,282.102 238.005,282.102 238.235 C 282.102 238.465,281.687 239.230,281.181 239.934 C 280.674 240.639,279.489 242.784,278.546 244.702 C 275.988 249.905,275.406 250.210,274.019 247.075 C 271.060 240.384,276.348 228.523,285.550 221.207 C 288.057 219.214,288.663 219.041,289.655 220.033 M115.703 220.084 C 121.490 223.145,128.189 232.444,129.230 238.859 C 130.854 248.874,127.384 252.479,124.249 244.035 C 123.941 243.206,123.273 241.990,122.764 241.332 C 122.255 240.674,121.839 239.989,121.839 239.810 C 121.839 239.630,121.276 238.617,120.589 237.558 C 118.365 234.133,117.007 231.718,116.609 230.480 C 116.394 229.814,115.955 228.928,115.632 228.510 C 115.309 228.092,114.813 227.085,114.529 226.273 C 114.245 225.460,113.680 224.030,113.274 223.096 C 112.155 220.524,113.465 218.900,115.703 220.084 M79.669 239.894 C 80.555 240.161,82.886 240.615,84.849 240.904 C 86.869 241.202,89.434 241.835,90.760 242.364 C 92.049 242.878,94.055 243.469,95.217 243.678 C 96.380 243.887,98.067 244.431,98.966 244.886 C 100.088 245.455,101.444 245.791,103.288 245.959 C 106.461 246.249,106.732 246.379,106.732 247.609 C 106.732 248.581,105.571 249.817,103.819 250.711 C 101.566 251.859,90.042 251.584,87.917 250.330 C 87.313 249.973,86.054 249.428,85.121 249.118 C 84.187 248.808,83.340 248.420,83.239 248.256 C 83.137 248.092,82.064 247.365,80.854 246.641 C 74.009 242.548,73.201 237.947,79.669 239.894 M327.685 239.803 C 328.853 240.971,326.067 244.656,322.739 246.345 C 321.973 246.734,320.945 247.388,320.454 247.798 C 319.962 248.209,318.790 248.801,317.849 249.113 C 316.908 249.426,315.610 249.993,314.965 250.375 C 313.873 251.020,313.323 251.067,306.897 251.067 L 300.000 251.067 298.444 250.083 C 295.135 247.990,295.677 246.425,299.862 245.987 C 301.617 245.803,303.292 245.392,304.446 244.860 C 305.446 244.399,307.367 243.807,308.715 243.543 C 310.063 243.280,312.087 242.685,313.214 242.221 C 314.340 241.757,316.779 241.152,318.633 240.876 C 320.486 240.600,322.668 240.167,323.481 239.914 C 325.332 239.336,327.170 239.288,327.685 239.803 M251.224 259.852 C 251.209 261.274,248.310 265.571,244.965 269.130 C 241.739 272.561,238.424 276.472,238.424 276.846 C 238.424 278.143,236.135 278.897,235.083 277.946 C 233.398 276.420,236.127 269.187,239.783 265.488 C 240.390 264.874,241.360 263.890,241.938 263.302 C 244.832 260.360,251.243 257.977,251.224 259.852 " stroke="none" fill="#151c24" fill-rule="evenodd"></path></g></svg>